<?xml version="1.0" encoding="UTF-8"?>
<svg id="Logos" xmlns="http://www.w3.org/2000/svg" xmlns:xlink="http://www.w3.org/1999/xlink" viewBox="0 0 1081.74 349.99">
  <defs>
    <style>
      .cls-1 {
        fill: #8ecc8d;
      }

      .cls-2 {
        fill: url(#linear-gradient-8);
      }

      .cls-3 {
        fill: url(#linear-gradient-7);
      }

      .cls-4 {
        fill: url(#linear-gradient-5);
      }

      .cls-5 {
        fill: url(#linear-gradient-6);
      }

      .cls-6 {
        fill: url(#linear-gradient-9);
      }

      .cls-7 {
        fill: url(#linear-gradient-4);
      }

      .cls-8 {
        fill: url(#linear-gradient-3);
      }

      .cls-9 {
        fill: url(#linear-gradient-2);
      }

      .cls-10 {
        fill: #043e54;
      }

      .cls-11 {
        fill: #d9e694;
      }

      .cls-12 {
        fill: #198aad;
      }

      .cls-13 {
        fill: url(#linear-gradient);
      }

      .cls-14 {
        fill: #a6d38b;
      }

      .cls-15 {
        isolation: isolate;
      }

      .cls-16 {
        fill: #0b455e;
      }

      .cls-17 {
        fill: #51b699;
      }

      .cls-18 {
        fill: #b6dc8c;
      }

      .cls-19 {
        fill: #1878a2;
      }

      .cls-20 {
        fill: #2ca2a4;
      }

      .cls-21 {
        fill: #17628f;
      }

      .cls-22 {
        fill: #033342;
      }

      .cls-23 {
        fill: #9bd08b;
      }

      .cls-24 {
        fill: #105477;
      }

      .cls-25 {
        fill: #154f78;
      }
    </style>
    <linearGradient id="linear-gradient" x1="455.03" y1="-48.58" x2="455.03" y2="-90.35" gradientTransform="translate(-263.08 232.06) rotate(-5.36)" gradientUnits="userSpaceOnUse">
      <stop offset="0" stop-color="#2ca2a4"/>
      <stop offset="1" stop-color="#198aad"/>
    </linearGradient>
    <linearGradient id="linear-gradient-2" x1="465.6" y1="-32.05" x2="465.6" y2="-50.1" gradientTransform="translate(-263.08 232.06) rotate(-5.36)" gradientUnits="userSpaceOnUse">
      <stop offset="0" stop-color="#043e54"/>
      <stop offset="1" stop-color="#17628f"/>
    </linearGradient>
    <linearGradient id="linear-gradient-3" x1="434.58" y1="-90.35" x2="434.58" y2="-109.91" gradientTransform="translate(-263.08 232.06) rotate(-5.36)" gradientUnits="userSpaceOnUse">
      <stop offset="0" stop-color="#8ecc8d"/>
      <stop offset="1" stop-color="#51b699"/>
    </linearGradient>
    <linearGradient id="linear-gradient-4" x1="171.46" y1="73.71" x2="180.61" y2="73.71" gradientUnits="userSpaceOnUse">
      <stop offset="0" stop-color="#043e54"/>
      <stop offset="1" stop-color="#198aad"/>
    </linearGradient>
    <linearGradient id="linear-gradient-5" x1="153.02" y1="73.47" x2="161.13" y2="73.47" xlink:href="#linear-gradient-4"/>
    <linearGradient id="linear-gradient-6" x1="427.54" y1="-51.34" x2="427.54" y2="-90.35" gradientTransform="translate(-263.08 232.06) rotate(-5.36)" gradientUnits="userSpaceOnUse">
      <stop offset="0" stop-color="#1878a2"/>
      <stop offset="1" stop-color="#51b699"/>
    </linearGradient>
    <linearGradient id="linear-gradient-7" x1="101.83" y1="117.41" x2="153.02" y2="117.41" gradientUnits="userSpaceOnUse">
      <stop offset="0" stop-color="#51b699"/>
      <stop offset="1" stop-color="#198aad"/>
    </linearGradient>
    <linearGradient id="linear-gradient-8" x1="139.17" y1="165.02" x2="139.17" y2="122.47" gradientTransform="matrix(1,0,0,1,0,0)" xlink:href="#linear-gradient-2"/>
    <linearGradient id="linear-gradient-9" x1="79.16" y1="149.7" x2="102.15" y2="149.7" gradientUnits="userSpaceOnUse">
      <stop offset="0" stop-color="#a6d38b"/>
      <stop offset="1" stop-color="#8ecc8d"/>
    </linearGradient>
  </defs>
  <g>
    <g class="cls-15">
      <path class="cls-25" d="M362.51,247.37v-96h42.51c5.94,0,11.34,1.35,16.18,4.05,4.84,2.7,8.66,6.33,11.45,10.9,2.79,4.57,4.18,9.78,4.18,15.63s-1.39,11-4.18,15.7c-2.79,4.71-6.61,8.43-11.45,11.18-4.85,2.74-10.24,4.11-16.18,4.11h-22.63v34.42h-19.89ZM382.4,196.22h21.67c2.47,0,4.64-.57,6.51-1.71,1.87-1.14,3.31-2.74,4.32-4.8,1-2.06,1.51-4.36,1.51-6.93,0-2.74-.6-5.12-1.78-7.13-1.19-2.01-2.93-3.59-5.21-4.73-2.29-1.14-4.94-1.71-7.95-1.71h-19.06v27.02ZM416.95,247.37l-24.41-43.34,21.12-3.43,27.15,46.9-23.86-.14Z"/>
      <path class="cls-25" d="M475.79,248.74c-6.03,0-11.47-1.65-16.32-4.94-4.85-3.29-8.69-7.77-11.52-13.44-2.83-5.67-4.25-12.16-4.25-19.47s1.44-13.78,4.32-19.41c2.88-5.62,6.79-10.06,11.73-13.3,4.94-3.24,10.56-4.87,16.87-4.87,3.57,0,6.83.53,9.81,1.58,2.97,1.05,5.58,2.49,7.82,4.32,2.24,1.83,4.14,3.93,5.69,6.31,1.55,2.38,2.65,4.94,3.29,7.68l-4.11-.69v-17.69h19.34v72.55h-19.61v-17.42l4.39-.41c-.73,2.56-1.92,4.98-3.57,7.27-1.65,2.29-3.68,4.32-6.1,6.1-2.42,1.78-5.14,3.2-8.16,4.25-3.02,1.05-6.22,1.58-9.6,1.58ZM481.14,231.88c3.66,0,6.86-.87,9.6-2.61,2.74-1.74,4.87-4.18,6.38-7.34,1.51-3.15,2.26-6.83,2.26-11.04s-.75-7.73-2.26-10.83c-1.51-3.11-3.63-5.55-6.38-7.34-2.74-1.78-5.94-2.67-9.6-2.67s-6.7.89-9.39,2.67c-2.7,1.78-4.82,4.23-6.38,7.34-1.56,3.11-2.33,6.72-2.33,10.83s.78,7.89,2.33,11.04c1.55,3.15,3.68,5.6,6.38,7.34,2.7,1.74,5.83,2.61,9.39,2.61Z"/>
      <path class="cls-25" d="M566.7,248.74c-6.95,0-13.17-1.65-18.65-4.94-5.49-3.29-9.81-7.77-12.96-13.44-3.15-5.67-4.73-12.11-4.73-19.34s1.58-13.55,4.73-19.27c3.15-5.71,7.47-10.22,12.96-13.51,5.49-3.29,11.7-4.94,18.65-4.94,6.49,0,12.43,1.19,17.83,3.57,5.39,2.38,9.6,5.67,12.62,9.87l-10.7,12.89c-1.28-1.74-2.88-3.31-4.8-4.73-1.92-1.42-4-2.54-6.24-3.36-2.24-.82-4.55-1.23-6.93-1.23-3.75,0-7.06.89-9.94,2.67s-5.14,4.23-6.79,7.34c-1.65,3.11-2.47,6.67-2.47,10.7s.84,7.43,2.54,10.49c1.69,3.06,4,5.53,6.93,7.41,2.92,1.88,6.22,2.81,9.87,2.81,2.38,0,4.62-.34,6.72-1.03,2.1-.69,4.09-1.71,5.97-3.09,1.87-1.37,3.59-3.02,5.14-4.94l10.56,12.89c-3.11,3.93-7.41,7.11-12.89,9.53-5.49,2.42-11.29,3.63-17.42,3.63Z"/>
      <path class="cls-25" d="M639.93,248.74c-7.86,0-14.72-1.6-20.57-4.8-5.85-3.2-10.42-7.59-13.71-13.17-3.29-5.58-4.94-11.98-4.94-19.2,0-5.58.91-10.7,2.74-15.36,1.83-4.66,4.39-8.71,7.68-12.14,3.29-3.43,7.2-6.08,11.73-7.95,4.53-1.87,9.44-2.81,14.74-2.81,4.94,0,9.51.89,13.71,2.67,4.2,1.78,7.84,4.3,10.9,7.54,3.06,3.25,5.42,7.06,7.06,11.45s2.38,9.19,2.19,14.4l-.14,6.03h-58.29l-3.15-11.93h45.39l-2.19,2.47v-3.02c-.18-2.47-.98-4.71-2.4-6.72-1.42-2.01-3.22-3.57-5.42-4.66s-4.66-1.65-7.41-1.65c-4.02,0-7.43.78-10.22,2.33-2.79,1.56-4.92,3.84-6.38,6.86-1.46,3.02-2.19,6.67-2.19,10.97s.94,8.18,2.81,11.38c1.87,3.2,4.53,5.69,7.95,7.47s7.47,2.67,12.14,2.67c3.2,0,6.12-.5,8.78-1.51,2.65-1,5.49-2.74,8.5-5.21l9.33,13.03c-2.65,2.38-5.58,4.37-8.78,5.97-3.2,1.6-6.49,2.81-9.87,3.63-3.38.82-6.72,1.23-10.01,1.23Z"/>
      <path class="cls-25" d="M676.65,192.24v-17.42h47.86v17.42h-47.86ZM690.22,247.37v-90.93h19.47v90.93h-19.47Z"/>
      <path class="cls-25" d="M734.03,247.37v-72.55h18.79l.69,23.31-3.29-4.8c1.1-3.75,2.88-7.15,5.35-10.22,2.47-3.06,5.37-5.46,8.71-7.2,3.34-1.74,6.83-2.61,10.49-2.61,1.55,0,3.06.14,4.53.41,1.46.27,2.7.6,3.7.96l-5.21,21.39c-1.1-.55-2.42-1.03-3.98-1.44-1.56-.41-3.15-.62-4.8-.62-2.19,0-4.23.39-6.1,1.17-1.88.78-3.5,1.87-4.87,3.29-1.37,1.42-2.45,3.09-3.22,5.01-.78,1.92-1.17,4.02-1.17,6.31v37.58h-19.61Z"/>
      <path class="cls-25" d="M817.31,248.74c-6.03,0-11.47-1.65-16.32-4.94-4.85-3.29-8.69-7.77-11.52-13.44-2.83-5.67-4.25-12.16-4.25-19.47s1.44-13.78,4.32-19.41c2.88-5.62,6.79-10.06,11.73-13.3,4.94-3.24,10.56-4.87,16.87-4.87,3.57,0,6.83.53,9.81,1.58,2.97,1.05,5.58,2.49,7.82,4.32,2.24,1.83,4.14,3.93,5.69,6.31,1.55,2.38,2.65,4.94,3.29,7.68l-4.11-.69v-17.69h19.34v72.55h-19.61v-17.42l4.39-.41c-.73,2.56-1.92,4.98-3.57,7.27-1.65,2.29-3.68,4.32-6.1,6.1-2.42,1.78-5.14,3.2-8.16,4.25-3.02,1.05-6.22,1.58-9.6,1.58ZM822.66,231.88c3.66,0,6.86-.87,9.6-2.61,2.74-1.74,4.87-4.18,6.38-7.34,1.51-3.15,2.26-6.83,2.26-11.04s-.75-7.73-2.26-10.83c-1.51-3.11-3.63-5.55-6.38-7.34-2.74-1.78-5.94-2.67-9.6-2.67s-6.7.89-9.39,2.67c-2.7,1.78-4.82,4.23-6.38,7.34-1.56,3.11-2.33,6.72-2.33,10.83s.78,7.89,2.33,11.04c1.55,3.15,3.68,5.6,6.38,7.34,2.7,1.74,5.83,2.61,9.39,2.61Z"/>
      <path class="cls-25" d="M908.22,248.74c-6.95,0-13.17-1.65-18.65-4.94-5.49-3.29-9.81-7.77-12.96-13.44-3.15-5.67-4.73-12.11-4.73-19.34s1.58-13.55,4.73-19.27c3.15-5.71,7.47-10.22,12.96-13.51,5.49-3.29,11.7-4.94,18.65-4.94,6.49,0,12.43,1.19,17.83,3.57,5.39,2.38,9.6,5.67,12.62,9.87l-10.7,12.89c-1.28-1.74-2.88-3.31-4.8-4.73-1.92-1.42-4-2.54-6.24-3.36-2.24-.82-4.55-1.23-6.93-1.23-3.75,0-7.06.89-9.94,2.67s-5.14,4.23-6.79,7.34c-1.65,3.11-2.47,6.67-2.47,10.7s.84,7.43,2.54,10.49c1.69,3.06,4,5.53,6.93,7.41,2.92,1.88,6.22,2.81,9.87,2.81,2.38,0,4.62-.34,6.72-1.03,2.1-.69,4.09-1.71,5.97-3.09,1.87-1.37,3.59-3.02,5.14-4.94l10.56,12.89c-3.11,3.93-7.41,7.11-12.89,9.53-5.49,2.42-11.29,3.63-17.42,3.63Z"/>
      <path class="cls-25" d="M947.99,247.37v-101.49h19.47v101.49h-19.47ZM966.51,225.57l-5.76-16.05,34.29-34.7h25.65l-54.17,50.74ZM997.09,247.37l-26.06-32.78,13.71-10.97,35.79,43.75h-23.45Z"/>
    </g>
    <g>
      <path class="cls-17" d="M362.38,129.7v-32.76h13.9c1.93,0,3.69.46,5.27,1.38,1.58.92,2.82,2.18,3.74,3.77.92,1.59,1.38,3.39,1.38,5.38s-.46,3.85-1.38,5.48c-.92,1.62-2.17,2.91-3.74,3.86-1.58.95-3.33,1.43-5.27,1.43h-6.88v11.47h-7.02ZM369.31,111.92h6.18c.75,0,1.42-.19,2.01-.58.59-.39,1.07-.91,1.43-1.57.36-.66.54-1.4.54-2.25s-.18-1.58-.54-2.22c-.36-.64-.83-1.14-1.43-1.5-.59-.36-1.26-.54-2.01-.54h-6.18v8.66Z"/>
      <path class="cls-17" d="M387.42,129.7l12.82-32.76h6.27l12.78,32.76h-7.21l-6.6-17.64c-.19-.5-.41-1.14-.68-1.92-.27-.78-.54-1.61-.82-2.48s-.55-1.71-.8-2.5-.44-1.46-.56-1.99l1.26-.05c-.19.72-.4,1.46-.63,2.22-.23.76-.48,1.54-.73,2.34-.25.8-.51,1.57-.79,2.32-.28.75-.55,1.48-.8,2.2l-6.6,17.5h-6.93ZM393.37,122.82l2.29-5.66h15.02l2.34,5.66h-19.66Z"/>
      <path class="cls-17" d="M425.28,129.7v-32.76h7.02v26.44h14.84v6.32h-21.86Z"/>
      <path class="cls-17" d="M468.62,130.17c-2.4,0-4.62-.42-6.65-1.26-2.03-.84-3.8-2.02-5.31-3.53-1.51-1.51-2.68-3.31-3.49-5.38-.81-2.08-1.22-4.33-1.22-6.76s.4-4.72,1.22-6.76c.81-2.04,1.97-3.83,3.49-5.36,1.51-1.53,3.28-2.71,5.31-3.56,2.03-.84,4.24-1.26,6.65-1.26s4.66.42,6.67,1.26c2.01.84,3.78,2.03,5.29,3.56,1.51,1.53,2.67,3.32,3.49,5.38.81,2.06,1.22,4.31,1.22,6.74s-.41,4.68-1.22,6.74c-.81,2.06-1.97,3.85-3.49,5.38-1.51,1.53-3.28,2.71-5.29,3.56-2.01.84-4.24,1.26-6.67,1.26ZM468.62,123.52c1.37,0,2.64-.25,3.81-.75,1.17-.5,2.18-1.22,3.02-2.15.84-.94,1.5-2.03,1.99-3.28.48-1.25.73-2.62.73-4.12s-.24-2.87-.73-4.12c-.48-1.25-1.15-2.33-1.99-3.25-.84-.92-1.85-1.64-3.02-2.15-1.17-.52-2.44-.77-3.81-.77s-2.64.26-3.79.77c-1.15.51-2.17,1.23-3.04,2.15-.87.92-1.54,2.01-1.99,3.25-.45,1.25-.68,2.62-.68,4.12s.23,2.87.68,4.12c.45,1.25,1.12,2.34,1.99,3.28.87.94,1.89,1.65,3.04,2.15,1.15.5,2.42.75,3.79.75Z"/>
      <path class="cls-17" d="M493.05,129.7v-32.76h6.41l11.93,19.42-4.21-.05,12.07-19.38h6.13v32.76h-6.88v-11.23c0-2.81.07-5.33.21-7.58.14-2.25.38-4.48.73-6.69l.84,2.2-9.59,14.88h-3.09l-9.41-14.79.8-2.29c.34,2.09.58,4.24.73,6.44.14,2.2.21,4.81.21,7.84v11.23h-6.88Z"/>
      <path class="cls-17" d="M534.47,129.7v-6.04h5.48v-20.69h-5.48v-6.04h17.97v6.04h-5.48v20.69h5.48v6.04h-17.97Z"/>
      <path class="cls-17" d="M561.53,129.7v-32.76h6.27l18.11,24.48h-1.31c-.12-.97-.23-1.91-.33-2.83-.09-.92-.18-1.86-.26-2.81-.08-.95-.14-1.93-.19-2.95-.05-1.01-.09-2.09-.12-3.23-.03-1.14-.05-2.38-.05-3.72v-8.94h6.88v32.76h-6.37l-18.49-24.71,1.78.05c.16,1.62.29,3,.4,4.14.11,1.14.19,2.13.26,2.97.06.84.12,1.58.16,2.2.05.62.08,1.22.09,1.78.02.56.02,1.15.02,1.78v11.79h-6.88Z"/>
      <path class="cls-17" d="M614.97,130.17c-2.4,0-4.62-.42-6.65-1.26-2.03-.84-3.8-2.02-5.31-3.53-1.51-1.51-2.68-3.31-3.49-5.38-.81-2.08-1.22-4.33-1.22-6.76s.4-4.72,1.22-6.76c.81-2.04,1.97-3.83,3.49-5.36,1.51-1.53,3.28-2.71,5.31-3.56,2.03-.84,4.24-1.26,6.65-1.26s4.66.42,6.67,1.26c2.01.84,3.78,2.03,5.29,3.56,1.51,1.53,2.67,3.32,3.49,5.38.81,2.06,1.22,4.31,1.22,6.74s-.41,4.68-1.22,6.74c-.81,2.06-1.97,3.85-3.49,5.38-1.51,1.53-3.28,2.71-5.29,3.56-2.01.84-4.24,1.26-6.67,1.26ZM614.97,123.52c1.37,0,2.64-.25,3.81-.75,1.17-.5,2.18-1.22,3.02-2.15.84-.94,1.5-2.03,1.99-3.28.48-1.25.73-2.62.73-4.12s-.24-2.87-.73-4.12c-.48-1.25-1.15-2.33-1.99-3.25-.84-.92-1.85-1.64-3.02-2.15-1.17-.52-2.44-.77-3.81-.77s-2.64.26-3.79.77c-1.15.51-2.17,1.23-3.04,2.15-.87.92-1.54,2.01-1.99,3.25-.45,1.25-.68,2.62-.68,4.12s.23,2.87.68,4.12c.45,1.25,1.12,2.34,1.99,3.28.87.94,1.89,1.65,3.04,2.15,1.15.5,2.42.75,3.79.75Z"/>
    </g>
  </g>
  <g>
    <path class="cls-11" d="M175.52,291.75h97.29l-36.1-80.88c16.53-13.84,28.24-35.27,28.24-67.71,0-46.95-40.64-85.02-90.78-85.02H58.35v233.61h92.04l-.85-58.02h.08s25.9,58.02,25.9,58.02Z"/>
    <polygon class="cls-22" points="82.55 203.1 67.28 228.9 91.11 223.6 86.36 213.22 82.55 203.1"/>
    <polygon class="cls-12" points="58.35 176.53 58.35 185.7 77 185.38 58.35 176.53"/>
    <polygon class="cls-10" points="166.02 216.92 158.33 229.5 196.99 221.2 166.02 216.92"/>
    <polygon class="cls-13" points="166.02 101.01 161.78 140.59 208.78 138.95 166.02 101.01"/>
    <polygon class="cls-9" points="208.78 138.95 182.95 139.85 203.43 156.06 208.78 138.95"/>
    <polygon class="cls-22" points="203.43 156.06 182.95 139.85 189.31 154.96 203.43 156.06"/>
    <polygon class="cls-16" points="208.78 138.95 203.43 156.06 213.9 154.24 208.78 138.95"/>
    <polygon class="cls-21" points="215.78 135.9 208.78 138.95 213.9 154.24 215.78 135.9"/>
    <polygon class="cls-12" points="215.78 135.9 188.37 99.27 208.78 138.95 215.78 135.9"/>
    <polygon class="cls-17" points="188.37 99.27 166.02 101.01 208.78 138.95 188.37 99.27"/>
    <polygon class="cls-1" points="165.72 81.39 166.02 101.01 188.37 99.27 165.72 81.39"/>
    <polygon class="cls-8" points="165.72 81.39 153.02 83.6 166.02 101.01 165.72 81.39"/>
    <polygon class="cls-17" points="175.78 82.09 165.72 81.39 188.37 99.27 175.78 82.09"/>
    <polygon class="cls-23" points="171.46 81.79 180.61 65.32 162.31 81.98 165.72 81.39 171.46 81.79"/>
    <polygon class="cls-7" points="180.61 65.32 171.46 81.79 175.78 82.09 180.61 65.32"/>
    <polygon class="cls-4" points="157.97 63.35 153.02 83.6 161.13 82.19 157.97 63.35"/>
    <polygon class="cls-17" points="153.02 83.6 144.06 122.47 166.02 101.01 153.02 83.6"/>
    <polygon class="cls-5" points="166.02 101.01 144.06 122.47 161.78 140.59 166.02 101.01"/>
    <polygon class="cls-3" points="101.83 151.22 144.06 122.47 153.02 83.6 101.83 151.22"/>
    <polygon class="cls-23" points="157.97 63.35 142.55 90.33 153.02 83.6 157.97 63.35"/>
    <polygon class="cls-17" points="114.41 108.44 101.83 151.22 153.02 83.6 114.41 108.44"/>
    <polygon class="cls-20" points="101.83 151.22 114.41 108.44 102.15 129.43 101.83 151.22"/>
    <polygon class="cls-12" points="120.59 158.18 144.06 122.47 101.83 151.22 120.59 158.18"/>
    <polygon class="cls-2" points="144.06 122.47 120.59 158.18 146.52 165.02 157.76 136.48 144.06 122.47"/>
    <polygon class="cls-21" points="117.18 185.72 146.52 165.02 120.59 158.18 117.18 185.72"/>
    <polygon class="cls-20" points="92.83 169.97 120.59 158.18 101.83 151.22 92.83 169.97"/>
    <polygon class="cls-12" points="117.18 185.72 120.59 158.18 92.83 169.97 117.18 185.72"/>
    <polygon class="cls-21" points="99.73 204.18 117.18 185.72 92.83 169.97 99.73 204.18"/>
    <polygon class="cls-6" points="92.83 169.97 101.83 151.22 102.15 129.43 79.16 143.59 92.83 169.97"/>
    <polygon class="cls-18" points="77 185.38 92.83 169.97 79.16 143.59 77 185.38"/>
    <polygon class="cls-17" points="77 185.38 99.73 204.18 92.83 169.97 77 185.38"/>
    <line class="cls-23" x1="146.52" y1="165.02" x2="156.75" y2="184.95"/>
    <polygon class="cls-16" points="146.52 165.02 117.18 185.72 156.75 184.95 146.52 165.02"/>
    <polygon class="cls-24" points="156.75 184.95 117.18 185.72 147.01 217.76 156.75 184.95"/>
    <polygon class="cls-24" points="99.73 204.18 122.32 216.92 117.18 185.72 99.73 204.18"/>
    <polygon class="cls-21" points="112.93 245 122.32 216.92 99.73 204.18 112.93 245"/>
    <polygon class="cls-1" points="79.16 143.59 58.35 157.29 58.35 176.53 77 185.38 79.16 143.59"/>
    <polygon class="cls-14" points="58.35 147.57 58.35 157.29 79.16 143.59 58.35 147.57"/>
    <polygon class="cls-18" points="58.35 142.26 58.35 147.78 75.59 144.57 58.35 142.26"/>
    <polygon class="cls-10" points="67.28 228.9 82.55 203.1 77 185.38 67.28 228.9"/>
    <polygon class="cls-24" points="81.8 213.11 99.73 204.18 77 185.38 81.8 213.11"/>
    <polygon class="cls-24" points="77 185.38 58.35 185.7 58.35 218.12 67.28 228.9 77 185.38"/>
    <polygon class="cls-10" points="122.32 216.92 127.87 229.36 147.01 217.76 122.32 216.92"/>
    <polygon class="cls-16" points="117.18 185.72 122.32 216.92 147.01 217.76 117.18 185.72"/>
    <polygon class="cls-10" points="108.57 274.26 136.68 271.94 113.7 263.53 108.57 274.26"/>
    <polygon class="cls-22" points="96.42 279.95 108.57 274.26 96.49 262.75 96.42 279.95"/>
    <polygon class="cls-21" points="108.57 274.26 113.7 263.53 96.49 262.75 108.57 274.26"/>
    <polygon class="cls-17" points="96.49 262.75 113.7 263.53 103.04 252.43 96.49 262.75"/>
    <polygon class="cls-19" points="113.7 263.53 121.51 258.67 103.04 252.43 113.7 263.53"/>
    <polygon class="cls-22" points="113.7 263.53 136.68 271.94 121.51 258.67 113.7 263.53"/>
    <polygon class="cls-10" points="136.68 271.94 140.67 258.02 121.51 258.67 136.68 271.94"/>
    <polygon class="cls-24" points="193.37 255.12 185.72 264.19 205.19 268.38 193.37 255.12"/>
    <polygon class="cls-20" points="202.72 252.88 193.37 255.12 205.19 268.38 202.72 252.88"/>
    <polygon class="cls-19" points="202.72 252.88 206.79 218.5 196.99 221.2 193.37 255.12 202.72 252.88"/>
    <polygon class="cls-16" points="189.55 240.96 185.72 264.19 193.37 255.12 189.55 240.96"/>
    <polygon class="cls-21" points="196.99 221.2 189.55 240.96 193.37 255.12 196.99 221.2"/>
    <polygon class="cls-19" points="112.93 245 140.67 258.02 122.32 216.92 112.93 245"/>
    <polygon class="cls-24" points="121.51 258.67 140.67 258.02 112.93 245 121.51 258.67"/>
    <polygon class="cls-10" points="81.8 213.11 112.93 245 99.73 204.18 81.8 213.11"/>
    <polygon class="cls-20" points="180.51 204.43 166.02 216.92 196.99 221.2 180.51 204.43"/>
    <polygon class="cls-1" points="206.79 218.5 180.51 204.43 196.99 221.2 206.79 218.5"/>
    <polygon class="cls-21" points="87.47 227.32 112.93 245 81.8 213.11 87.47 227.32"/>
    <polygon class="cls-24" points="58.35 218.12 58.35 234 67.28 228.9 58.35 218.12"/>
    <polygon class="cls-12" points="180.51 204.43 159.42 194.14 166.02 216.92 180.51 204.43"/>
    <polygon class="cls-12" points="154.1 152.93 146.52 165.02 156.75 184.95 154.1 152.93"/>
    <polygon class="cls-22" points="196.99 221.2 185.72 223.62 189.55 240.96 196.99 221.2"/>
    <polygon class="cls-21" points="165.72 140.37 161.78 140.59 157.76 136.48 146.52 165.02 154.1 152.93 165.72 140.37"/>
    <polygon class="cls-16" points="156.75 184.95 147.01 217.76 166.02 216.92 156.75 184.95"/>
    <polygon class="cls-22" points="166.02 216.92 147.01 217.76 134.68 225.24 158.33 229.5 166.02 216.92"/>
    <polygon class="cls-19" points="159.42 194.14 166.82 197.75 166.28 187.54 155.25 166.83 156.75 184.95 159.42 194.14"/>
  </g>
</svg>